<svg width="276" height="10" viewBox="0 0 276 10" fill="none" xmlns="http://www.w3.org/2000/svg">
<path d="M275.324 5.32144L274.925 5.38383C274.925 5.3974 275.043 5.40825 275.058 5.42588C275.154 5.53303 274.822 5.5588 274.792 5.59407C274.747 5.64561 274.635 5.84499 274.659 5.88839C274.665 5.90195 274.759 5.91281 274.792 5.93044C274.792 5.94536 274.366 6.03216 274.327 6.03488C274.106 6.05115 272.844 6.04844 272.603 6.03488C271.002 5.944 268.867 5.95214 267.028 5.90874C266.979 5.90874 266.943 5.86805 266.895 5.86669C265.714 5.83956 264.868 5.85448 263.709 5.82464C260.619 5.74462 257.469 5.60492 254.283 5.53032C196.196 4.17127 131.288 2.7539 72.2797 5.32009C68.1151 5.5683 63.8539 5.71478 59.6682 5.94943C52.5923 6.34683 45.5859 6.80799 38.6943 7.33425C31.4976 7.88356 24.2707 8.42339 17.1888 9.4325L16.6573 9.60069H17.9861C18.7743 9.53558 20.0307 9.55457 21.0393 9.51659C25.4546 9.34976 30.3953 9.04595 34.9797 8.80316C39.1986 8.57936 43.4961 8.27555 47.7241 8.04768C50.3183 7.90798 52.8611 7.77234 55.4251 7.62857C110.338 4.54426 169.391 3.69791 227.339 5.02576C227.852 5.06509 228.677 5.09765 229.196 5.10985C241.342 5.39468 253.229 5.7514 264.509 6.789C264.778 6.83105 265.33 6.95854 264.708 6.95719V7.25151C264.497 7.27457 264.427 7.21218 264.376 7.20946C262.18 7.08739 260.112 6.9382 257.871 6.83105C254.824 6.68592 251.671 6.47162 248.578 6.36989C220.48 5.43537 190.884 5.1302 164.015 5.15326C149.96 5.23464 135.313 5.42181 121.137 5.6985C115.475 5.84906 109.879 6.00097 104.277 6.11761C102.691 6.24239 100.967 6.19357 99.2332 6.2858C97.1192 6.39702 94.1174 6.41465 91.5322 6.53808C91.4809 6.54079 91.4477 6.57877 91.3994 6.58012C90.6202 6.60861 89.9014 6.58148 89.1434 6.62217C86.7274 6.74967 84.0849 6.8107 81.4424 6.91649C62.9691 7.65705 43.8645 8.80994 24.757 9.72818C23.0507 9.84211 21.1148 9.94113 19.4478 9.98046C18.8136 9.99538 16.7842 10.0157 16.2617 9.98046C16.1379 9.97232 15.8691 9.87331 15.6637 9.89637C15.7755 9.78108 15.5007 9.76616 15.398 9.70784C15.3255 9.66579 15.2983 9.57763 15.1322 9.53965C15.3315 9.50574 15.2289 9.45556 15.2651 9.41351C15.3255 9.34841 15.9959 9.26703 16.1288 9.18293C16.2255 9.17615 16.4671 9.1531 16.5275 9.14089C18.4361 8.77061 20.3266 8.56987 22.3681 8.34336C26.8317 7.84694 31.4191 7.45089 35.9098 7.08468C79.1532 3.54735 128.715 2.9682 173.706 3.26523C175.126 3.38188 177.24 3.24353 178.883 3.30728C179.846 3.34526 181.377 3.39137 182.468 3.39137C190.691 3.39137 199.235 3.59889 207.292 3.64365C216.705 3.83761 226.055 3.98138 235.435 4.14685C239.28 4.24044 242.43 4.32725 246.19 4.35709C246.416 4.42626 246.902 4.40185 247.253 4.39913C247.416 4.39913 247.748 4.43033 247.718 4.35709L245.927 4.31504C228.51 3.46597 210.46 2.85969 192.56 2.50976C166.404 1.82887 140.746 1.85464 115.3 1.88041C106.729 1.99163 100.106 1.99435 91.9339 2.09065C91.046 2.1449 89.7383 2.15846 88.8807 2.13269C84.2903 2.24934 80.3643 2.29003 76.0034 2.34293C71.3465 2.44601 66.282 2.59114 61.1359 2.63725C58.2578 2.74983 55.1714 2.81629 52.1091 2.84748C39.5067 3.20963 26.1975 3.48361 13.2115 3.68706H3.45387L3.91894 3.77115C4.24813 3.79692 4.67697 3.81998 4.98199 3.85524C5.03333 3.86067 5.06051 3.89051 5.11487 3.89729C5.18735 3.90678 5.29003 3.89051 5.31419 3.89729C5.32929 3.90271 5.30513 3.99901 5.51351 4.02343C5.64639 4.04377 5.41687 4.10481 5.38063 4.10752C5.28701 4.11566 4.95783 4.1143 4.84911 4.10752C4.82797 4.10752 4.57127 4.07768 4.45047 4.06547C4.14847 4.03699 3.48406 3.91356 3.25454 3.89729C2.67168 3.85795 2.07372 3.82676 1.53012 3.77115C1.21 3.7386 0.929143 3.69248 0.599963 3.64501C0.533523 3.63552 0.421783 3.65315 0.334202 3.64501C0.231522 3.63552 -0.0251773 3.48632 0.00200268 3.45648L0.334202 3.35204C0.669423 3.36425 1.08014 3.33576 1.39724 3.35204C4.22397 3.50124 8.10769 3.36018 11.0884 3.30999C12.5501 3.28558 13.6222 3.29372 15.0718 3.26795C18.9676 3.19742 23.1594 3.02652 27.1518 2.88953C30.951 2.75932 35.0129 2.64268 38.9661 2.51111C42.7501 2.38497 46.5493 2.21814 50.3817 2.092C52.7463 2.01334 55.1895 1.87635 57.5512 1.79768C67.2303 1.47623 76.1061 1.13443 85.2959 0.916059C88.6058 0.768218 91.5685 0.711252 94.5885 0.66378C100.326 0.452192 106.424 0.392513 112.376 0.244672C131.417 -0.0699982 149.646 -0.0455842 169.593 0.118533C174.564 0.203982 179.17 0.284006 183.666 0.328765C189.263 0.465755 194.91 0.586469 200.527 0.707183C204.834 0.799414 209.258 1.01507 213.537 1.12629C220.308 1.30262 227.031 1.57117 233.717 1.83972C240.675 2.11913 247.733 2.47856 254.558 2.88953C259.994 3.21641 265.626 3.59618 270.887 4.06412C272.14 4.17534 274.363 4.32996 275.535 4.56732C275.773 4.61615 275.843 4.69617 276 4.75585C275.955 4.80332 275.613 4.91047 275.601 4.92404C275.571 4.9593 275.632 5.01491 275.601 5.05017C275.565 5.09086 275.145 5.17767 275.336 5.3228L275.324 5.32144ZM247.911 4.39778C247.823 4.39778 247.823 4.43982 247.911 4.43982C247.999 4.43982 247.999 4.39778 247.911 4.39778ZM248.177 4.39778C248.089 4.39778 248.089 4.43982 248.177 4.43982C248.264 4.43982 248.264 4.39778 248.177 4.39778ZM248.442 4.39778C248.355 4.39778 248.355 4.43982 248.442 4.43982C248.53 4.43982 248.53 4.39778 248.442 4.39778ZM19.5746 8.80587C19.4871 8.80587 19.4871 8.84792 19.5746 8.84792C19.6622 8.84792 19.6622 8.80587 19.5746 8.80587ZM19.0461 8.9727C18.9586 8.9727 18.9586 9.01475 19.0461 9.01475C19.1337 9.01475 19.1337 8.9727 19.0461 8.9727ZM16.2557 9.30907L16.0563 9.37147L16.1228 9.39181L16.3221 9.32942L16.2557 9.30907ZM30.1295 9.30907H29.8638V9.35112H30.1295V9.30907Z" fill="black"/>
</svg>
